# xmcd
#
# Track frame offsets: 
#        150
#        15692
#        32052
#        44585
#        61180
#        78742
#        94602
#        106432
#        120062
#        133025
#
# Disc length: 1964 seconds
#
# Revision: 2
# Processed by: cddbd v1.4PL0 Copyright (c) Steve Scherf et al.
# Submitted via: ExactAudioCopy v0.90b4
#
DISCID=7a07aa0a
DTITLE=Various Artist - Greatest Country Hits of the 90's - 1991
DYEAR=1992
DGENRE=Country
TTITLE0=Ricky Van Shelton - I'm A Simple Man
TTITLE1=Shenandoah - Ghost In This House
TTITLE2=Joe Diffie - If The Devil Danced (In Empty Pockets)
TTITLE3=Shelby Lynne - What About The Love We Made
TTITLE4=Ricky Skaggs - Life's Too Long (To Live Like This)
TTITLE5=Doug Stone - These Lips Don't Know How to Say Goodbye
TTITLE6=Mary-Chapin Carpenter - Right Now
TTITLE7=Vern Gosden - Is It Raining At Your House
TTITLE8=Waylon Jennings - The Eagle
TTITLE9=Mike Reid - Walk On Faith
EXTD=
EXTT0=
EXTT1=
EXTT2=
EXTT3=
EXTT4=
EXTT5=
EXTT6=
EXTT7=
EXTT8=
EXTT9=
PLAYORDER=
